<svg width="26" height="11" viewBox="0 0 26 11" fill="none" xmlns="http://www.w3.org/2000/svg">
<path d="M4.54102 7.13477L4.53516 6.37305C4.53516 5.93164 4.49219 5.63867 4.40625 5.49414C4.32031 5.3457 4.23047 5.23828 4.13672 5.17188C4.04297 5.10156 3.92773 5.03125 3.79102 4.96094H6.36328C6.11719 5.1875 5.96094 5.47656 5.89453 5.82812C5.83203 6.16406 5.80078 6.68359 5.80078 7.38672C5.80078 8.75391 5.88281 9.66406 6.04688 10.1172C5.99219 10.1211 5.9375 10.123 5.88281 10.123H5.72461C4.00586 10.123 2.70312 9.57031 1.81641 8.46484C0.96875 7.40625 0.544922 5.9043 0.544922 3.95898C0.544922 2.99805 0.828125 2.26172 1.39453 1.75C1.91797 1.27344 2.61914 1.03516 3.49805 1.03516L4.5293 1.04688C5.07227 1.04688 5.45117 0.980469 5.66602 0.847656C5.75586 0.789062 5.83203 0.714844 5.89453 0.625C5.99219 0.8125 6.04102 1.07031 6.04102 1.39844C6.04102 1.72656 6.03125 1.99219 6.01172 2.19531C5.99219 2.39453 5.96289 2.58984 5.92383 2.78125C5.8418 3.1875 5.71484 3.50391 5.54297 3.73047C5.39453 2.94922 5.20898 2.41016 4.98633 2.11328C4.73633 1.78516 4.3457 1.62109 3.81445 1.62109C3.14258 1.62109 2.66797 1.89062 2.39062 2.42969C2.19141 2.82422 2.0918 3.42188 2.0918 4.22266C2.0918 5.32031 2.26172 6.37305 2.60156 7.38086C2.83984 8.08789 3.13672 8.58984 3.49219 8.88672C3.67578 9.04297 3.86523 9.12109 4.06055 9.12109C4.25977 9.12109 4.38672 9.06445 4.44141 8.95117C4.49609 8.83789 4.52539 8.64453 4.5293 8.37109C4.53711 7.83203 4.54102 7.41992 4.54102 7.13477ZM11.4316 10C11.4824 9.75391 11.5078 9.55859 11.5078 9.41406C11.5078 9.26562 11.5039 9.1543 11.4961 9.08008C11.4922 9.00586 11.4844 8.92773 11.4727 8.8457C11.4648 8.75977 11.4531 8.66602 11.4375 8.56445C11.4258 8.45898 11.4141 8.33789 11.4023 8.20117C11.3125 7.26758 10.9941 6.5 10.4473 5.89844C10.2051 5.63281 9.94336 5.43164 9.66211 5.29492C9.38086 5.1543 9.14844 5.08398 8.96484 5.08398C8.78516 5.08398 8.64648 5.0957 8.54883 5.11914C8.33008 5.77539 8.2207 6.46094 8.2207 7.17578C8.2207 7.80859 8.25391 8.28125 8.32031 8.59375C8.42578 9.0625 8.58789 9.5332 8.80664 10.0059H7.05469C7.14844 9.77148 7.19531 9.2793 7.19531 8.5293C7.19531 7.77539 7.25195 7.07227 7.36523 6.41992C7.47852 5.76367 7.625 5.17969 7.80469 4.66797C7.98828 4.15625 8.19141 3.70898 8.41406 3.32617C8.64062 2.93945 8.86523 2.60352 9.08789 2.31836C9.31445 2.0293 9.52734 1.7832 9.72656 1.58008C9.92578 1.37305 10.0918 1.19141 10.2246 1.03516H12.0703C11.9023 1.22656 11.8184 1.49414 11.8184 1.83789C11.8184 1.99414 11.8438 2.25 11.8945 2.60547L12.041 3.67188C12.5762 7.35938 13.0547 9.46875 13.4766 10H11.4316ZM8.78906 4.49805C8.94141 4.43945 9.10156 4.41016 9.26953 4.41016C9.4375 4.41016 9.58789 4.42188 9.7207 4.44531C9.85742 4.46875 9.99219 4.50781 10.125 4.5625C10.4102 4.67188 10.6484 4.8457 10.8398 5.08398C10.6484 4.08008 10.5312 3.4668 10.4883 3.24414L10.2832 2.21875L9.94922 2.61719C9.48047 3.17969 9.09375 3.80664 8.78906 4.49805ZM16.6465 4.43359C16.1934 4.43359 15.9668 4.70117 15.9668 5.23633C15.9668 7.45508 16.0039 8.76172 16.0781 9.15625C16.1211 9.39453 16.1758 9.57227 16.2422 9.68945L16.418 10H14.3379C14.4629 9.70312 14.5352 9.45508 14.5547 9.25586C14.5781 9.05664 14.5977 8.84375 14.6133 8.61719C14.6445 8.15625 14.6602 7.53711 14.6602 6.75977C14.6602 5.81836 14.6445 4.95898 14.6133 4.18164L14.5488 2.57031C14.5332 2.16406 14.498 1.88086 14.4434 1.7207C14.3574 1.4668 14.2168 1.23828 14.0215 1.03516H17.1211C18.0664 1.03516 18.75 1.12891 19.1719 1.31641C19.6172 1.51172 19.8398 1.8457 19.8398 2.31836C19.8398 2.73242 19.6855 3.12109 19.377 3.48438C19.0879 3.82031 18.709 4.08789 18.2402 4.28711C18.2988 5.78711 18.7695 7.22656 19.6523 8.60547C20.0312 9.20312 20.418 9.66797 20.8125 10H18.6152C18.2324 9.47656 17.8789 8.41602 17.5547 6.81836C17.4453 6.26367 17.373 5.80273 17.3379 5.43555C17.3066 5.06836 17.2793 4.84766 17.2559 4.77344C17.2363 4.69531 17.2031 4.63281 17.1562 4.58594C17.0625 4.48438 16.8926 4.43359 16.6465 4.43359ZM17.9941 3.39062C18.1035 3.27344 18.1797 3.14844 18.2227 3.01562C18.2695 2.88281 18.293 2.75586 18.293 2.63477C18.293 2.50977 18.2754 2.38672 18.2402 2.26562C18.209 2.14062 18.1445 2.03125 18.0469 1.9375C17.832 1.72656 17.457 1.62109 16.9219 1.62109C16.7227 1.62109 16.5605 1.62891 16.4355 1.64453C16.3145 1.66016 16.2188 1.70312 16.1484 1.77344C16.0273 1.89062 15.9668 2.18945 15.9668 2.66992C15.9668 3.0918 16.0117 3.36133 16.1016 3.47852C16.2617 3.68555 16.5039 3.78906 16.8281 3.78906C17.1523 3.78906 17.4004 3.75195 17.5723 3.67773C17.748 3.59961 17.8887 3.50391 17.9941 3.39062ZM22.4004 7.74414L22.4062 6.51953V5.85156C22.4062 5.5 22.2617 5 21.9727 4.35156C21.75 3.86328 21.5996 3.54102 21.5215 3.38477L21.3281 2.99805C20.8242 1.94336 20.3828 1.28906 20.0039 1.03516H22.3652C22.3379 1.11328 22.3242 1.21289 22.3242 1.33398C22.3242 1.45508 22.334 1.58398 22.3535 1.7207C22.373 1.85352 22.3984 1.99023 22.4297 2.13086C22.4883 2.40039 22.5645 2.64844 22.6582 2.875L22.9395 3.55469C23.0371 3.78125 23.1582 4.01172 23.3027 4.24609C23.4863 3.96875 23.6328 3.69727 23.7422 3.43164L23.9648 2.88086C24.1875 2.31445 24.2988 1.77539 24.2988 1.26367C24.2988 1.17773 24.293 1.10156 24.2812 1.03516H25.8926C25.6777 1.26172 25.4531 1.5918 25.2188 2.02539C24.9844 2.45898 24.8203 2.77344 24.7266 2.96875L24.4277 3.61914C24.0215 4.51758 23.8184 5.23633 23.8184 5.77539V8.45312C23.8184 8.85156 23.8652 9.13867 23.959 9.31445C24.0527 9.49023 24.1523 9.62695 24.2578 9.72461C24.3633 9.82227 24.4902 9.91406 24.6387 10H21.6445C22.1484 9.74219 22.4004 9.27148 22.4004 8.58789V7.74414Z" fill="white"/>
</svg>
