<svg width="29" height="36" viewBox="0 0 29 36" fill="none" xmlns="http://www.w3.org/2000/svg">
<path d="M14.1687 35.9339C13.8401 35.9339 13.5002 35.9339 13.1734 35.9102C11.6528 35.8187 10.132 35.5259 8.65592 35.0402C8.09009 34.8419 7.35941 34.5699 6.68442 34.2127L6.55428 34.144V4.54126C5.04925 5.43534 3.68164 6.60404 2.57658 7.94349V31.4867L2.17351 31.1155C1.5399 30.5324 0.897986 29.8167 0.210948 28.9277L0.15918 28.8607V7.07314L0.210948 7.00619C0.899221 6.11589 1.54113 5.40019 2.17351 4.8184C3.53779 3.52429 5.05985 2.47977 6.69498 1.71574C7.36184 1.36318 8.09149 1.09155 8.65149 0.894948L8.97143 0.782651V32.5262C10.2461 33.0122 11.5515 33.3016 12.9491 33.4072V0.0407011L13.1732 0.024169C13.5 0 13.8401 0 14.1687 0C14.4864 0 14.8148 0 15.142 0.024169C16.6612 0.115291 18.1821 0.407662 19.6593 0.893255C20.4326 1.15599 21.0583 1.41868 21.6304 1.72125L21.7607 1.7899V31.3931C23.2658 30.499 24.6331 29.3298 25.7386 27.9904V4.44718L26.1417 4.8184C26.8399 5.46163 27.4823 6.17776 28.1059 7.00875L28.1556 7.07484V28.8587L28.1059 28.9252C27.4833 29.7549 26.841 30.4714 26.1417 31.1155C24.7789 32.4088 23.2566 33.4538 21.62 34.2182C21.0604 34.5144 20.4347 34.7771 19.6616 35.0399L19.344 35.1475V3.40731C18.1053 2.92892 16.7691 2.63312 15.3661 2.52677V35.8941L15.1418 35.9102C14.8146 35.9339 14.4862 35.9339 14.1687 35.9339Z" fill="#1C214F"/>
</svg>
