<svg width="411" height="128" viewBox="0 0 411 128" fill="none" xmlns="http://www.w3.org/2000/svg">
<path d="M8.43435 113.207C10.9108 113.207 12.5568 114.416 12.5568 116.543C12.5568 118.685 10.9108 119.879 8.43435 119.879H3.29217V123.404H1.54411V113.207H8.43435ZM8.28868 118.379C9.78909 118.379 10.7651 117.854 10.7651 116.558C10.7651 115.247 9.78909 114.737 8.28868 114.737H3.29217V118.379H8.28868ZM30.1745 123.71C26.2559 123.71 23.8378 121.671 23.8378 118.306C23.8378 114.941 26.2559 112.901 30.1745 112.901C34.093 112.901 36.5112 114.941 36.5112 118.306C36.5112 121.671 34.093 123.71 30.1745 123.71ZM30.1745 122.166C32.9422 122.166 34.7194 120.782 34.7194 118.306C34.7194 115.829 32.9422 114.446 30.1745 114.446C27.4067 114.446 25.615 115.829 25.615 118.306C25.615 120.782 27.3922 122.166 30.1745 122.166ZM62.541 113.207H64.3619L60.6327 123.404H58.8264L55.8256 115.174L52.8102 123.404H51.0184L47.2747 113.207H49.1393L51.9507 121.365L54.9807 113.207H56.6996L59.715 121.365L62.541 113.207ZM77.8765 121.875H86.2963V123.404H76.143V113.207H86.1506V114.737H77.8765V117.461H84.8396V118.99H77.8765V121.875ZM109.844 123.404H107.688L104.527 119.704H100.23V123.404H98.4819V113.207H105.416C107.79 113.207 109.538 114.344 109.538 116.456C109.538 118.218 108.315 119.296 106.538 119.617L109.844 123.404ZM100.215 118.204H105.299C106.756 118.204 107.747 117.738 107.747 116.47C107.747 115.203 106.756 114.737 105.299 114.737H100.215V118.204ZM137.923 123.404H136.175V113.207H137.923V123.404ZM160.401 113.207H162.105V123.404H160.561L152.593 115.363V123.404H150.903V113.207H152.768L160.401 120.942V113.207ZM191.098 121.875H199.517V123.404H189.364V113.207H199.372V114.737H191.098V117.461H198.061V118.99H191.098V121.875ZM210.29 113.207H212.227L216.525 121.613L220.822 113.207H222.73L217.442 123.404H215.578L210.29 113.207ZM236.046 121.875H244.465V123.404H234.312V113.207H244.32V114.737H236.046V117.461H243.009V118.99H236.046V121.875ZM268.013 123.404H265.857L262.696 119.704H258.399V123.404H256.651V113.207H263.585C265.959 113.207 267.707 114.344 267.707 116.456C267.707 118.218 266.484 119.296 264.707 119.617L268.013 123.404ZM258.385 118.204H263.468C264.925 118.204 265.916 117.738 265.916 116.47C265.916 115.203 264.925 114.737 263.468 114.737H258.385V118.204ZM278.232 113.207H280.257L284.146 118.379L288.007 113.207H290.017L285.006 119.879V123.404H283.258V119.879L278.232 113.207ZM313.492 113.207H315.429L319.726 121.613L324.024 113.207H325.932L320.644 123.404H318.779L313.492 113.207ZM342.696 123.71C338.777 123.71 336.359 121.671 336.359 118.306C336.359 114.941 338.777 112.901 342.696 112.901C346.614 112.901 349.032 114.941 349.032 118.306C349.032 121.671 346.614 123.71 342.696 123.71ZM342.696 122.166C345.463 122.166 347.241 120.782 347.241 118.306C347.241 115.829 345.463 114.446 342.696 114.446C339.928 114.446 338.136 115.829 338.136 118.306C338.136 120.782 339.913 122.166 342.696 122.166ZM363.066 123.404H361.318V113.207H363.066V123.404ZM381.596 122.166C383.257 122.166 384.568 121.627 385.34 120.36L386.957 121.161C385.995 122.647 384.131 123.71 381.552 123.71C377.736 123.71 375.332 121.656 375.332 118.306C375.332 114.955 377.736 112.901 381.625 112.901C384.131 112.901 385.995 113.979 386.942 115.436L385.311 116.252C384.553 114.999 383.257 114.446 381.596 114.446C378.901 114.446 377.109 115.757 377.109 118.306C377.109 120.855 378.901 122.166 381.596 122.166ZM400.645 121.875H409.065V123.404H398.911V113.207H408.919V114.737H400.645V117.461H407.608V118.99H400.645V121.875Z" fill="#fff"/>
<g clip-path="url(#clip0_92_801)">
<path d="M125.558 67.2355L101.676 19.1319C101.416 18.6012 101.218 18.1698 101.218 17.8254C101.218 17.318 101.577 16.8063 102.379 16.8063H108.031C109.196 16.8063 109.534 16.9311 110.18 18.1527L124.236 46.7229C125.217 48.7222 126.744 52.5155 127.328 53.9858C127.913 52.5155 129.44 48.7222 130.42 46.7229L144.471 18.1663C145.123 16.9311 145.461 16.8063 146.626 16.8063H152.279C153.081 16.8063 153.439 17.318 153.439 17.8254C153.439 18.1699 153.232 18.6202 152.981 19.1302L129.098 67.2355H125.558Z" fill="#fff"/>
<path d="M213.807 68.0583C198.101 68.0583 187.131 57.3512 187.131 42.0208C187.131 26.6905 198.101 15.9834 213.807 15.9834C229.514 15.9834 240.484 26.6905 240.484 42.0208C240.484 57.3512 229.514 68.0583 213.807 68.0583ZM213.807 23.2887C202.891 23.2887 195.267 30.991 195.267 42.0208C195.267 53.0507 202.891 60.7521 213.807 60.7521C224.724 60.7521 232.347 53.0498 232.347 42.0208C232.347 30.8164 224.897 23.2887 213.807 23.2887Z" fill="#fff"/>
<path d="M316.436 67.2355C315.289 67.2355 314.987 67.1406 314.101 66.0591L298.322 46.9191L298.304 46.9489C297.423 48.4238 296.328 50.2593 295.581 51.0976L283.567 66.0555C282.68 67.1406 282.378 67.2355 281.231 67.2355H274.77C274.201 67.2355 273.771 66.797 273.771 66.2155C273.771 65.8682 273.944 65.493 274.246 65.1865L293.482 41.1212L275.103 18.8209C274.833 18.5479 274.66 18.1726 274.66 17.8254C274.66 17.2448 275.09 16.8063 275.659 16.8063H282.361C283.507 16.8063 283.81 16.9012 284.695 17.9827L299.446 35.9128C300.279 34.6785 302.224 31.8202 303.195 30.5832L313.537 17.9818C314.421 16.9012 314.723 16.8063 315.87 16.8063H322.249C322.819 16.8063 323.248 17.2448 323.248 17.8254C323.248 18.1735 323.075 18.5496 322.774 18.8553L304.187 41.6891L323.611 65.2191C323.883 65.493 324.056 65.8683 324.056 66.2156C324.056 66.797 323.626 67.2356 323.057 67.2356L316.436 67.2355Z" fill="#fff"/>
<path d="M402.753 67.2356C401.587 67.2356 401.249 67.1108 400.604 65.8882L386.548 37.3189C385.566 35.3196 384.04 31.5273 383.455 30.057C382.87 31.5273 381.344 35.3196 380.362 37.3189L366.313 65.8746C365.661 67.1108 365.323 67.2355 364.157 67.2355H358.505C357.703 67.2355 357.344 66.7228 357.344 66.2155C357.344 65.8718 357.543 65.4396 357.802 64.9106L381.685 16.8063H385.225L409.107 64.9089C409.368 65.4396 409.566 65.8718 409.566 66.2155C409.566 66.7228 409.207 67.2355 408.405 67.2355L402.753 67.2356Z" fill="#fff"/>
<path d="M31.3259 76.6802C30.6246 76.6802 29.8994 76.6802 29.202 76.6295C25.9572 76.4343 22.7119 75.8094 19.562 74.7731C18.3546 74.35 16.7954 73.7694 15.355 73.0072L15.0773 72.8607V9.69079C11.8657 11.5987 8.94731 14.0926 6.58921 16.9509V67.1902L5.72907 66.398C4.377 65.1539 3.00722 63.6265 1.54113 61.7295L1.43066 61.5866V15.0936L1.54113 14.9508C3.00985 13.0509 4.37964 11.5237 5.72907 10.2822C8.64034 7.52067 11.8883 5.29176 15.3775 3.66137C16.8005 2.90905 18.3576 2.32941 19.5526 1.90987L20.2353 1.67023V69.4084C22.9553 70.4455 25.741 71.0631 28.7233 71.2883V0.086975L29.2016 0.0516968C29.8989 0.00012207 30.6246 0.00012207 31.3259 0.00012207C32.0037 0.00012207 32.7046 0.00012207 33.4028 0.0516968C36.6445 0.246144 39.8902 0.87004 43.0423 1.90626C44.6924 2.46691 46.0276 3.02747 47.2484 3.67313L47.5266 3.81961V66.9904C50.7382 65.0825 53.6561 62.5876 56.0151 59.7293V9.49005L56.8752 10.2822C58.3652 11.6548 59.7359 13.183 61.0667 14.9562L61.1727 15.0972V61.5821L61.0667 61.7241C59.7382 63.4946 58.3675 65.0237 56.8752 66.3981C53.9671 69.1579 50.7187 71.3877 47.2263 73.019C46.0322 73.651 44.697 74.2117 43.0473 74.7723L42.3695 75.0019V7.27104C39.7261 6.2502 36.8748 5.61899 33.881 5.39204V76.5951L33.4023 76.6295C32.7041 76.6801 32.0033 76.6802 31.3259 76.6802Z" fill="#fff"/>
</g>
<defs>
<clipPath id="clip0_92_801">
<rect width="408.136" height="76.6801" fill="white" transform="translate(1.43164 6.10352e-05)"/>
</clipPath>
</defs>
</svg>
